<svg xmlns="http://www.w3.org/2000/svg" viewBox="0 0 1200 630" width="1200" height="630">
  <defs>
    <linearGradient id="bg" x1="0" y1="0" x2="1" y2="1">
      <stop offset="0%" stop-color="#4338ca"/>
      <stop offset="100%" stop-color="#6366f1"/>
    </linearGradient>
  </defs>
  <rect width="1200" height="630" fill="url(#bg)"/>
  <!-- Logo -->
  <rect x="80" y="60" width="64" height="64" rx="16" fill="rgba(255,255,255,0.2)"/>
  <text x="112" y="102" text-anchor="middle" font-size="36" font-weight="800" font-family="system-ui,sans-serif" fill="white">cw</text>
  <text x="160" y="100" font-size="32" font-weight="700" font-family="system-ui,sans-serif" fill="white">chatweb.ai</text>
  <!-- Mic icon -->
  <circle cx="960" cy="300" r="120" fill="rgba(255,255,255,0.1)"/>
  <rect x="935" y="220" width="50" height="100" rx="25" fill="white" opacity="0.9"/>
  <path d="M920 310 Q920 360 960 360 Q1000 360 1000 310" fill="none" stroke="white" stroke-width="6" opacity="0.8"/>
  <line x1="960" y1="360" x2="960" y2="400" stroke="white" stroke-width="6" opacity="0.8"/>
  <line x1="940" y1="400" x2="980" y2="400" stroke="white" stroke-width="6" stroke-linecap="round" opacity="0.8"/>
  <!-- Sound waves -->
  <path d="M1050 260 Q1080 300 1050 340" fill="none" stroke="rgba(255,255,255,0.4)" stroke-width="4"/>
  <path d="M1070 230 Q1120 300 1070 370" fill="none" stroke="rgba(255,255,255,0.25)" stroke-width="4"/>
  <path d="M1090 200 Q1160 300 1090 400" fill="none" stroke="rgba(255,255,255,0.15)" stroke-width="4"/>
  <!-- Main heading -->
  <text x="80" y="260" font-size="64" font-weight="800" font-family="system-ui,sans-serif" fill="white">声で頼むだけ。</text>
  <text x="80" y="340" font-size="52" font-weight="700" font-family="system-ui,sans-serif" fill="rgba(255,255,255,0.9)">本当にやってくれるAI</text>
  <!-- Subtitle -->
  <text x="80" y="410" font-size="26" font-weight="400" font-family="system-ui,sans-serif" fill="rgba(255,255,255,0.7)">検索、コード実行、ファイル操作まで全自動。100クレジット無料。</text>
  <!-- Badges -->
  <rect x="80" y="460" width="120" height="48" rx="24" fill="rgba(255,255,255,0.15)"/>
  <text x="140" y="490" text-anchor="middle" font-size="20" font-weight="600" font-family="system-ui,sans-serif" fill="white">🎤 音声</text>
  <rect x="220" y="460" width="120" height="48" rx="24" fill="rgba(255,255,255,0.15)"/>
  <text x="280" y="490" text-anchor="middle" font-size="20" font-weight="600" font-family="system-ui,sans-serif" fill="white">🌐 Web</text>
  <rect x="360" y="460" width="120" height="48" rx="24" fill="#06C755" opacity="0.9"/>
  <text x="420" y="490" text-anchor="middle" font-size="20" font-weight="600" font-family="system-ui,sans-serif" fill="white">💬 LINE</text>
</svg>
